<svg xmlns="http://www.w3.org/2000/svg" xmlns:xlink="http://www.w3.org/1999/xlink" version="1.1" x="0px" y="0px" viewBox="0 0 100 125" enable-background="new 0 0 100 100" xml:space="preserve"><g><path fill="none" d="M50,13.2c-20.3,0-36.8,16.5-36.8,36.8S29.7,86.8,50,86.8S86.8,70.3,86.8,50S70.3,13.2,50,13.2z M66.5,28.7   c0,0.7-0.6,1.3-1.3,1.3s-1.3-0.6-1.3-1.3s0.6-1.3,1.3-1.3S66.5,28,66.5,28.7z M60.5,26.7l1.9-3.2c0.3-0.5,0.9-0.6,1.4-0.4   c0.5,0.3,0.6,0.9,0.4,1.4l-1.9,3.2c-0.2,0.3-0.5,0.5-0.9,0.5c-0.2,0-0.3,0-0.5-0.1C60.4,27.8,60.2,27.2,60.5,26.7z M58.2,23.8   c0.7,0,1.3,0.6,1.3,1.3s-0.6,1.3-1.3,1.3s-1.3-0.6-1.3-1.3S57.4,23.8,58.2,23.8z M53.2,24.8l1-4.6c0.1-0.5,0.7-0.9,1.2-0.8   c0.5,0.1,0.9,0.6,0.8,1.2l-1,4.6c-0.1,0.5-0.5,0.8-1,0.8c-0.1,0-0.1,0-0.2,0C53.4,25.9,53.1,25.3,53.2,24.8z M49.2,17.2   c0-0.6,0.4-1,1-1c0.6,0,1,0.4,1,1V25c0,0.6-0.4,1-1,1c-0.6,0-1-0.4-1-1V17.2z M44.6,19.4c0.5-0.1,1.1,0.2,1.2,0.8l1,4.6   c0.1,0.5-0.2,1.1-0.8,1.2c-0.1,0-0.1,0-0.2,0c-0.5,0-0.9-0.3-1-0.8l-1-4.6C43.8,20,44.1,19.5,44.6,19.4z M41.6,23.7   c0.7,0,1.3,0.6,1.3,1.3s-0.6,1.3-1.3,1.3c-0.7,0-1.3-0.6-1.3-1.3S40.9,23.7,41.6,23.7z M35.8,22.7c0.5-0.3,1.1-0.1,1.4,0.4l1.9,3.2   c0.3,0.5,0.1,1.1-0.4,1.4c-0.2,0.1-0.3,0.1-0.5,0.1c-0.3,0-0.7-0.2-0.9-0.5l-1.9-3.2C35.2,23.6,35.4,23,35.8,22.7z M34.2,27.2   c0.7,0,1.3,0.6,1.3,1.3c0,0.7-0.6,1.3-1.3,1.3s-1.3-0.6-1.3-1.3C32.9,27.8,33.5,27.2,34.2,27.2z M50,71.3   c-11.7,0-21.3-9.6-21.3-21.3S38.2,28.7,50,28.7S71.3,38.2,71.3,50S61.7,71.3,50,71.3z"/><path fill="none" d="M50,31.9C40,31.9,31.9,40,31.9,50S40,68.1,50,68.1S68.1,60,68.1,50S60,31.9,50,31.9z M62.9,51   c-0.9,0-1.6-0.7-1.6-1.6c0-5.3-6-9.5-11.1-9.5c-5.2,0-11.1,4.1-11.1,9.5c0,0.9-0.7,1.6-1.6,1.6c-0.9,0-1.6-0.7-1.6-1.6   c0-7.3,7.6-12.7,14.3-12.7c1.1,0,2.3,0.2,3.4,0.5l2.3-2.1l0.4,3c4.5,2.1,8.1,6.2,8.1,11.3C64.5,50.3,63.8,51,62.9,51z"/><path fill="none" d="M50,5.8C25.6,5.8,5.8,25.6,5.8,50S25.6,94.2,50,94.2S94.2,74.4,94.2,50S74.4,5.8,50,5.8z M50,90   c-22.1,0-40-17.9-40-40s18-40,40-40s40,17.9,40,40S72.1,90,50,90z"/><path d="M50,2.6C23.9,2.6,2.6,23.9,2.6,50S23.9,97.4,50,97.4S97.4,76.1,97.4,50S76.2,2.6,50,2.6z M50,94.2   C25.6,94.2,5.8,74.4,5.8,50S25.6,5.8,50,5.8S94.2,25.6,94.2,50S74.4,94.2,50,94.2z"/><path d="M50,10c-22,0-40,17.9-40,40s17.9,40,40,40c22.1,0,40-17.9,40-40S72,10,50,10z M50,86.8c-20.3,0-36.8-16.5-36.8-36.8   S29.7,13.2,50,13.2S86.8,29.7,86.8,50S70.3,86.8,50,86.8z"/><path d="M50,28.7c-11.8,0-21.3,9.6-21.3,21.3S38.3,71.3,50,71.3S71.3,61.8,71.3,50S61.8,28.7,50,28.7z M50,68.1   C40,68.1,31.9,60,31.9,50S40,31.9,50,31.9S68.1,40,68.1,50S60,68.1,50,68.1z"/><path d="M56.4,38.1l-0.4-3l-2.3,2.1c-1.1-0.3-2.3-0.5-3.4-0.5c-6.7,0-14.3,5.4-14.3,12.7c0,0.9,0.7,1.6,1.6,1.6   c0.9,0,1.6-0.7,1.6-1.6c0-5.4,5.9-9.5,11.1-9.5c5.1,0,11.1,4.2,11.1,9.5c0,0.9,0.7,1.6,1.6,1.6c0.9,0,1.6-0.7,1.6-1.6   C64.5,44.3,60.9,40.2,56.4,38.1z"/><path d="M50.2,26c0.6,0,1-0.4,1-1v-7.8c0-0.6-0.4-1-1-1c-0.6,0-1,0.4-1,1V25C49.2,25.6,49.6,26,50.2,26z"/><path d="M53.9,26c0.1,0,0.1,0,0.2,0c0.5,0,0.9-0.3,1-0.8l1-4.6c0.1-0.5-0.2-1.1-0.8-1.2c-0.5-0.1-1.1,0.2-1.2,0.8l-1,4.6   C53.1,25.3,53.4,25.9,53.9,26z"/><path d="M44.9,25.2c0.1,0.5,0.5,0.8,1,0.8c0.1,0,0.1,0,0.2,0c0.5-0.1,0.9-0.6,0.8-1.2l-1-4.6c-0.1-0.5-0.6-0.9-1.2-0.8   c-0.5,0.1-0.9,0.6-0.8,1.2L44.9,25.2z"/><circle cx="58.2" cy="25.1" r="1.3"/><circle cx="65.2" cy="28.7" r="1.3"/><circle cx="41.6" cy="25" r="1.3"/><circle cx="34.2" cy="28.5" r="1.3"/><path d="M60.8,28.1c0.2,0.1,0.3,0.1,0.5,0.1c0.3,0,0.7-0.2,0.9-0.5l1.9-3.2c0.3-0.5,0.1-1.1-0.4-1.4c-0.5-0.3-1.1-0.1-1.4,0.4   l-1.9,3.2C60.2,27.2,60.4,27.8,60.8,28.1z"/><path d="M37.4,27.3c0.2,0.3,0.5,0.5,0.9,0.5c0.2,0,0.3,0,0.5-0.1c0.5-0.3,0.6-0.9,0.4-1.4l-1.9-3.2c-0.3-0.5-0.9-0.6-1.4-0.4   c-0.5,0.3-0.6,0.9-0.4,1.4L37.4,27.3z"/></g><text x="0" y="115" fill="#000000" font-size="5px" font-weight="bold" font-family="'Helvetica Neue', Helvetica, Arial-Unicode, Arial, Sans-serif">Created by Alex Vaughn</text><text x="0" y="120" fill="#000000" font-size="5px" font-weight="bold" font-family="'Helvetica Neue', Helvetica, Arial-Unicode, Arial, Sans-serif">from the Noun Project</text></svg>